<svg xmlns="http://www.w3.org/2000/svg" xmlns:xlink="http://www.w3.org/1999/xlink" width="500" zoomAndPan="magnify" viewBox="0 0 375 374.999991" height="500" preserveAspectRatio="xMidYMid meet" version="1.2"><defs><clipPath id="117d98f7ee"><path d="M 46.941406 147 L 342.441406 147 L 342.441406 375 L 46.941406 375 Z M 46.941406 147 "/></clipPath></defs><g id="4a0a60b233"><path style=" stroke:none;fill-rule:nonzero;fill:#aab8c2;fill-opacity:1;" d="M 194.550781 0.148438 C 131.839844 0.148438 81.003906 50.984375 81.003906 113.695312 L 81.003906 227.242188 L 126.421875 227.242188 L 126.421875 113.695312 C 126.421875 76.078125 156.921875 45.566406 194.550781 45.566406 C 232.179688 45.566406 262.675781 76.078125 262.675781 113.695312 L 262.675781 227.242188 L 308.09375 227.242188 L 308.09375 113.695312 C 308.09375 50.984375 257.261719 0.148438 194.550781 0.148438 Z M 194.550781 0.148438 "/><g clip-rule="nonzero" clip-path="url(#117d98f7ee)"><path style=" stroke:none;fill-rule:nonzero;fill:#8c52ff;fill-opacity:1;" d="M 342.160156 329.433594 C 342.160156 354.515625 321.824219 374.851562 296.742188 374.851562 L 92.359375 374.851562 C 67.277344 374.851562 46.941406 354.515625 46.941406 329.433594 L 46.941406 193.175781 C 46.941406 168.09375 67.277344 147.757812 92.359375 147.757812 L 296.742188 147.757812 C 321.824219 147.757812 342.160156 168.09375 342.160156 193.175781 Z M 342.160156 329.433594 "/></g></g></svg>